# xmcd
#
# Track frame offsets: 
#        150
#        17470
#        32755
#        56942
#        80582
#        119027
#        140635
#        161762
#        184685
#        201922
#
# Disc length: 3177 seconds
#
# Revision: 2
# Processed by: cddbd v1.5.2PL0 Copyright (c) Steve Scherf et al.
# Submitted via: ExactAudioCopy v0.99pb4
#
DISCID=900c670a
DTITLE=Robert Earl Keen - Gringo Honeymoon
DYEAR=1994
DGENRE=Country
TTITLE0=Think it over one time
TTITLE1=Tom Ames  Prayer
TTITLE2=Gringo Honeymoon
TTITLE3=The Raven And The Coyote
TTITLE4=Lonely Feeling
TTITLE5=Merry Christmas From The Family
TTITLE6=Barbeque
TTITLE7=Lynnville Train
TTITLE8=I 'm Comin' Home
TTITLE9=Dreadful Selfish Crime
EXTD=
EXTT0=
EXTT1=
EXTT2=
EXTT3=
EXTT4=
EXTT5=
EXTT6=
EXTT7=
EXTT8=
EXTT9=
PLAYORDER=
